<svg width="16" height="13" viewBox="0 0 16 13" fill="none" xmlns="http://www.w3.org/2000/svg">
  <path d="M11.8563 0C11.9446 0.00950186 11.9015 -0.000727696 11.9862 0.0855199C12.0413 0.744803 12.0102 1.74762 12.006 2.43614C9.36466 3.19775 7.40166 4.26707 4.97915 5.55639C4.29799 5.91893 2.3597 6.15867 2.12959 6.76533C2.21641 6.99995 2.39498 7.10593 2.59121 7.26893C8.04046 6.1996 9.41407 2.62909 15.98 3.27814C16.016 5.19094 15.992 7.17756 15.9941 9.09547C15.0871 9.08451 14.0466 9.04943 13.1728 9.26212C11.7116 9.61662 10.3451 10.5208 8.9969 11.2137C7.28025 12.0973 5.96806 12.587 4.11941 13C3.87729 12.8779 3.99094 10.8899 3.99729 10.5032C7.36002 9.72479 9.70065 7.70016 12.9561 6.76752C13.2003 6.69735 13.7396 6.4927 13.8525 6.25369C13.7862 5.99202 13.6118 5.89115 13.4029 5.71062C11.7286 6.06145 10.4715 6.53582 8.96373 7.38733C6.19393 8.95148 3.24202 10.2803 0 9.66997L0.00776344 3.86945C0.904207 3.87091 1.88395 3.93085 2.75639 3.73424C4.21682 3.40459 5.5636 2.50557 6.8892 1.8207C8.51057 0.982348 10.074 0.328179 11.8563 0Z" fill="#1A1A1A"/>
</svg>
